<svg xmlns="http://www.w3.org/2000/svg" xmlns:xlink="http://www.w3.org/1999/xlink" version="1.1" x="0px" y="0px" width="205.5px" height="102.75px" viewBox="217 174 205.5 102.75" enable-background="new 217 174 205.5 102.75" xml:space="preserve"><style>.style0{fill:	#FF0000;}.style1{fill:	#FFFFFF;}</style><rect x="217" y="174" width="205.5" height="102.8" class="style0"/><rect x="268.4" y="174" width="102.8" height="102.8" class="style1"/><path d="M319.748 183.633l-7.01 13.075c-0.796 1.421-2.221 1.289-3.646 0.495l-5.075-2.628l3.782 20.1 c0.795 3.669-1.756 3.669-3.016 2.083l-8.857-9.916l-1.438 5.035c-0.166 0.661-0.895 1.356-1.989 1.191l-11.2-2.355l2.941 10.7 c0.629 2.4 1.1 3.366-0.636 3.993l-3.992 1.876l19.28 15.661c0.763 0.6 1.1 1.7 0.9 2.623l-1.687 5.5 c6.638-0.766 12.586-1.917 19.229-2.626c0.585-0.063 1.6 0.9 1.6 1.584l-0.879 20.288h3.228l-0.508-20.244 c-0.004-0.68 0.886-1.691 1.472-1.628c6.642 0.7 12.6 1.9 19.2 2.626l-1.687-5.538c-0.272-0.965 0.114-2.031 0.877-2.623 l19.28-15.661l-3.992-1.876c-1.756-0.627-1.265-1.612-0.636-3.993l2.941-10.695l-11.2 2.355c-1.094 0.166-1.823-0.53-1.989-1.19 l-1.438-5.036l-8.857 9.916c-1.26 1.586-3.812 1.586-3.016-2.083l3.782-20.083l-5.075 2.628c-1.425 0.794-2.85 0.926-3.646-0.495" class="style0"/></svg>