<svg xmlns="http://www.w3.org/2000/svg" xmlns:xlink="http://www.w3.org/1999/xlink" version="1.1" x="0px" y="0px" width="67px" height="72.369px" viewBox="11.5 0 67 72.369" enable-background="new 11.5 0 67 72.369" xml:space="preserve"><style>.style0{fill:	#FF0000;}</style><path d="M44.999 0l-5.851 10.915c-0.664 1.186-1.854 1.076-3.043 0.414l-4.236-2.194l3.157 16.8 c0.664 3.063-1.466 3.063-2.518 1.739l-7.393-8.277l-1.2 4.204c-0.139 0.552-0.747 1.131-1.66 0.994l-9.348-1.966l2.456 8.9 c0.525 2 0.9 2.809-0.531 3.333L11.5 36.418l16.092 13.073c0.637 0.5 1 1.4 0.7 2.189l-1.408 4.6 c5.541-0.639 10.505-1.6 16.049-2.192c0.489-0.052 1.3 0.8 1.3 1.323l-0.734 16.935h2.694l-0.424-16.898 c-0.003-0.567 0.74-1.412 1.229-1.359c5.544 0.6 10.5 1.6 16 2.192l-1.408-4.623c-0.227-0.806 0.095-1.695 0.732-2.189 L78.5 36.418l-3.332-1.566c-1.466-0.524-1.056-1.346-0.531-3.333l2.456-8.928l-9.348 1.966c-0.913 0.138-1.521-0.442-1.66-0.994 l-1.201-4.204l-7.393 8.277c-1.051 1.324-3.181 1.324-2.518-1.739l3.157-16.764l-4.236 2.194c-1.189 0.663-2.379 0.772-3.043-0.414" class="style0"/></svg>