<?xml version="1.0" encoding="utf-8"?>
<!-- Generator: Adobe Illustrator 16.0.0, SVG Export Plug-In . SVG Version: 6.00 Build 0)  -->
<!DOCTYPE svg PUBLIC "-//W3C//DTD SVG 1.1//EN" "http://www.w3.org/Graphics/SVG/1.1/DTD/svg11.dtd">
<svg version="1.1" id="Layer_1" xmlns="http://www.w3.org/2000/svg" xmlns:xlink="http://www.w3.org/1999/xlink" x="0px" y="0px"
	 width="47.255px" height="26.82px" viewBox="0 0 47.255 26.82" enable-background="new 0 0 47.255 26.82" xml:space="preserve">
<polygon style="fill: rgb(27,102,255);" points="12.321,15.51 30.967,15.51 42.156,15.51 44.604,13.144 47.255,10.582 44.604,8.021 42.156,5.656 9.491,5.656 
	7.304,5.656 6.936,5.307 6.538,4.928 6.936,4.551 7.304,4.203 47.211,4.203 42.88,0 5.096,0 2.649,2.367 0,4.928 2.649,7.49 
	5.096,9.856 9.491,9.856 39.947,9.856 40.316,10.206 40.72,10.582 40.316,10.96 39.947,11.31 30.967,11.31 10.113,11.31 
	7.666,13.675 5.017,16.238 7.666,18.797 10.113,21.164 18.056,21.164 34.873,21.164 35.242,21.516 35.645,21.89 35.242,22.268 
	34.873,22.62 26.459,22.62 23.265,25.717 22.126,26.82 37.081,26.82 39.528,24.454 42.18,21.89 39.528,19.331 37.081,16.964 
	18.056,16.964 12.321,16.964 11.953,16.617 11.552,16.238 11.953,15.859 "/>
</svg>
